<svg aria-roledescription="er" viewBox="0 0 428.0078125 1022" style="max-width: 428.008px; background-color: white;" xmlns:xlink="http://www.w3.org/1999/xlink" xmlns="http://www.w3.org/2000/svg" width="100%" id="mermaid-0"><style>#mermaid-0{font-family:"trebuchet ms",verdana,arial,sans-serif;font-size:16px;fill:#000000;}#mermaid-0 .error-icon{fill:#552222;}#mermaid-0 .error-text{fill:#552222;stroke:#552222;}#mermaid-0 .edge-thickness-normal{stroke-width:2px;}#mermaid-0 .edge-thickness-thick{stroke-width:3.5px;}#mermaid-0 .edge-pattern-solid{stroke-dasharray:0;}#mermaid-0 .edge-pattern-dashed{stroke-dasharray:3;}#mermaid-0 .edge-pattern-dotted{stroke-dasharray:2;}#mermaid-0 .marker{fill:#000000;stroke:#000000;}#mermaid-0 .marker.cross{stroke:#000000;}#mermaid-0 svg{font-family:"trebuchet ms",verdana,arial,sans-serif;font-size:16px;}#mermaid-0 .entityBox{fill:#cde498;stroke:#13540c;}#mermaid-0 .attributeBoxOdd{fill:#ffffff;stroke:#13540c;}#mermaid-0 .attributeBoxEven{fill:#f2f2f2;stroke:#13540c;}#mermaid-0 .relationshipLabelBox{fill:hsl(78.1578947368, 58.4615384615%, 84.5098039216%);opacity:0.7;background-color:hsl(78.1578947368, 58.4615384615%, 84.5098039216%);}#mermaid-0 .relationshipLabelBox rect{opacity:0.5;}#mermaid-0 .relationshipLine{stroke:#000000;}#mermaid-0 .entityTitleText{text-anchor:middle;font-size:18px;fill:#000000;}#mermaid-0 :root{--mermaid-font-family:"trebuchet ms",verdana,arial,sans-serif;}</style><g/><defs><marker orient="auto" markerHeight="18" markerWidth="18" refY="9" refX="0" id="ONLY_ONE_START"><path d="M9,0 L9,18 M15,0 L15,18" fill="none" stroke="gray"/></marker></defs><defs><marker orient="auto" markerHeight="18" markerWidth="18" refY="9" refX="18" id="ONLY_ONE_END"><path d="M3,0 L3,18 M9,0 L9,18" fill="none" stroke="gray"/></marker></defs><defs><marker orient="auto" markerHeight="18" markerWidth="30" refY="9" refX="0" id="ZERO_OR_ONE_START"><circle r="6" cy="9" cx="21" fill="white" stroke="gray"/><path d="M9,0 L9,18" fill="none" stroke="gray"/></marker></defs><defs><marker orient="auto" markerHeight="18" markerWidth="30" refY="9" refX="30" id="ZERO_OR_ONE_END"><circle r="6" cy="9" cx="9" fill="white" stroke="gray"/><path d="M21,0 L21,18" fill="none" stroke="gray"/></marker></defs><defs><marker orient="auto" markerHeight="36" markerWidth="45" refY="18" refX="18" id="ONE_OR_MORE_START"><path d="M0,18 Q 18,0 36,18 Q 18,36 0,18 M42,9 L42,27" fill="none" stroke="gray"/></marker></defs><defs><marker orient="auto" markerHeight="36" markerWidth="45" refY="18" refX="27" id="ONE_OR_MORE_END"><path d="M3,9 L3,27 M9,18 Q27,0 45,18 Q27,36 9,18" fill="none" stroke="gray"/></marker></defs><defs><marker orient="auto" markerHeight="36" markerWidth="57" refY="18" refX="18" id="ZERO_OR_MORE_START"><circle r="6" cy="18" cx="48" fill="white" stroke="gray"/><path d="M0,18 Q18,0 36,18 Q18,36 0,18" fill="none" stroke="gray"/></marker></defs><defs><marker orient="auto" markerHeight="36" markerWidth="57" refY="18" refX="39" id="ZERO_OR_MORE_END"><circle r="6" cy="18" cx="9" fill="white" stroke="gray"/><path d="M21,18 Q39,0 57,18 Q39,36 21,18" fill="none" stroke="gray"/></marker></defs><path style="stroke: gray; fill: none;" marker-start="url(#ZERO_OR_MORE_START)" marker-end="url(#ONLY_ONE_END)" d="M329.56640625,600L329.56640625,612C329.56640625,624,329.56640625,648,329.56640625,668.3333333333334C329.56640625,688.6666666666666,329.56640625,705.3333333333334,329.56640625,713.6666666666666L329.56640625,722" class="er relationshipLine"/><path style="stroke: gray; fill: none;" marker-start="url(#ZERO_OR_MORE_START)" marker-end="url(#ONLY_ONE_END)" d="M210.076171875,88L210.076171875,96.33333333333333C210.076171875,104.66666666666667,210.076171875,121.33333333333333,210.076171875,138C210.076171875,154.66666666666666,210.076171875,171.33333333333334,210.076171875,179.66666666666666L210.076171875,188" class="er relationshipLine"/><path style="stroke: gray; fill: none;" marker-start="url(#ZERO_OR_ONE_START)" marker-end="url(#ONLY_ONE_END)" d="M130.416015625,388L123.77766927083333,396.3333333333333C117.13932291666667,404.6666666666667,103.86263020833333,421.3333333333333,97.22428385416667,438C90.5859375,454.6666666666667,90.5859375,471.3333333333333,90.5859375,479.6666666666667L90.5859375,488" class="er relationshipLine"/><path style="stroke: gray; fill: none;" marker-start="url(#ZERO_OR_MORE_START)" marker-end="url(#ONLY_ONE_END)" d="M289.736328125,388L296.3746744791667,396.3333333333333C303.0130208333333,404.6666666666667,316.2897135416667,421.3333333333333,322.9280598958333,441.6666666666667C329.56640625,462,329.56640625,486,329.56640625,498L329.56640625,510" class="er relationshipLine"/><path style="stroke: gray; fill: none;" marker-start="url(#ZERO_OR_MORE_START)" marker-end="url(#ZERO_OR_MORE_END)" d="M309.32831101190476,790L304.3679935515873,798.3333333333334C299.4076760912698,806.6666666666666,289.48704117063494,823.3333333333334,288.45754132038036,840C287.4280414701258,856.6666666666666,295.28967669025155,873.3333333333334,299.22049430031444,881.6666666666666L303.15131191037733,890" class="er relationshipLine"/><path style="stroke: gray; fill: none;" marker-start="url(#ZERO_OR_MORE_START)" marker-end="url(#ZERO_OR_MORE_END)" d="M355.98150058962267,890L359.91231819968556,881.6666666666666C363.84313580974845,873.3333333333334,371.70477102987417,856.6666666666666,370.67527117961964,840C369.64577132936506,823.3333333333334,359.7251364087301,806.6666666666666,354.7648189484127,798.3333333333334L349.80450148809524,790" class="er relationshipLine"/><g transform="translate(20,488 )" id="entity-Priority-b34c0c79-38a7-4dde-b5cc-29970c507c58"><rect height="134" width="141.171875" y="0" x="0" class="er entityBox"/><text style="dominant-baseline: middle; text-anchor: middle; font-size: 12px;" transform="translate(70.5859375,12)" y="0" x="0" id="text-entity-Priority-b34c0c79-38a7-4dde-b5cc-29970c507c58" class="er entityLabel">Priority</text><rect height="22" width="70.5859375" y="24" x="0" class="er attributeBoxOdd"/><text style="dominant-baseline: middle; font-size: 10.2px;" transform="translate(5,35)" y="0" x="0" id="text-entity-Priority-b34c0c79-38a7-4dde-b5cc-29970c507c58-attr-1-type" class="er entityLabel">NO_PRIORITY</text><rect height="22" width="70.5859375" y="24" x="70.5859375" class="er attributeBoxOdd"/><text style="dominant-baseline: middle; font-size: 10.2px;" transform="translate(75.5859375,35)" y="0" x="0" id="text-entity-Priority-b34c0c79-38a7-4dde-b5cc-29970c507c58-attr-1-name" class="er entityLabel">NO_PRIORITY</text><rect height="22" width="70.5859375" y="46" x="0" class="er attributeBoxEven"/><text style="dominant-baseline: middle; font-size: 10.2px;" transform="translate(5,57)" y="0" x="0" id="text-entity-Priority-b34c0c79-38a7-4dde-b5cc-29970c507c58-attr-2-type" class="er entityLabel">LOW</text><rect height="22" width="70.5859375" y="46" x="70.5859375" class="er attributeBoxEven"/><text style="dominant-baseline: middle; font-size: 10.2px;" transform="translate(75.5859375,57)" y="0" x="0" id="text-entity-Priority-b34c0c79-38a7-4dde-b5cc-29970c507c58-attr-2-name" class="er entityLabel">LOW</text><rect height="22" width="70.5859375" y="68" x="0" class="er attributeBoxOdd"/><text style="dominant-baseline: middle; font-size: 10.2px;" transform="translate(5,79)" y="0" x="0" id="text-entity-Priority-b34c0c79-38a7-4dde-b5cc-29970c507c58-attr-3-type" class="er entityLabel">MEDIUM</text><rect height="22" width="70.5859375" y="68" x="70.5859375" class="er attributeBoxOdd"/><text style="dominant-baseline: middle; font-size: 10.2px;" transform="translate(75.5859375,79)" y="0" x="0" id="text-entity-Priority-b34c0c79-38a7-4dde-b5cc-29970c507c58-attr-3-name" class="er entityLabel">MEDIUM</text><rect height="22" width="70.5859375" y="90" x="0" class="er attributeBoxEven"/><text style="dominant-baseline: middle; font-size: 10.2px;" transform="translate(5,101)" y="0" x="0" id="text-entity-Priority-b34c0c79-38a7-4dde-b5cc-29970c507c58-attr-4-type" class="er entityLabel">HIGH</text><rect height="22" width="70.5859375" y="90" x="70.5859375" class="er attributeBoxEven"/><text style="dominant-baseline: middle; font-size: 10.2px;" transform="translate(75.5859375,101)" y="0" x="0" id="text-entity-Priority-b34c0c79-38a7-4dde-b5cc-29970c507c58-attr-4-name" class="er entityLabel">HIGH</text><rect height="22" width="70.5859375" y="112" x="0" class="er attributeBoxOdd"/><text style="dominant-baseline: middle; font-size: 10.2px;" transform="translate(5,123)" y="0" x="0" id="text-entity-Priority-b34c0c79-38a7-4dde-b5cc-29970c507c58-attr-5-type" class="er entityLabel">URGENT</text><rect height="22" width="70.5859375" y="112" x="70.5859375" class="er attributeBoxOdd"/><text style="dominant-baseline: middle; font-size: 10.2px;" transform="translate(75.5859375,123)" y="0" x="0" id="text-entity-Priority-b34c0c79-38a7-4dde-b5cc-29970c507c58-attr-5-name" class="er entityLabel">URGENT</text></g><g transform="translate(261.171875,510 )" id="entity-projects-76f947d8-c3aa-4af7-8360-e56bd856d031"><rect height="90" width="136.7890625" y="0" x="0" class="er entityBox"/><text style="dominant-baseline: middle; text-anchor: middle; font-size: 12px;" transform="translate(68.39453125,12)" y="0" x="0" id="text-entity-projects-76f947d8-c3aa-4af7-8360-e56bd856d031" class="er entityLabel">projects</text><rect height="22" width="36.5234375" y="24" x="0" class="er attributeBoxOdd"/><text style="dominant-baseline: middle; font-size: 10.2px;" transform="translate(5,35)" y="0" x="0" id="text-entity-projects-76f947d8-c3aa-4af7-8360-e56bd856d031-attr-1-type" class="er entityLabel">String</text><rect height="22" width="78.703125" y="24" x="36.5234375" class="er attributeBoxOdd"/><text style="dominant-baseline: middle; font-size: 10.2px;" transform="translate(41.5234375,35)" y="0" x="0" id="text-entity-projects-76f947d8-c3aa-4af7-8360-e56bd856d031-attr-1-name" class="er entityLabel">id</text><rect height="22" width="21.5625" y="24" x="115.2265625" class="er attributeBoxOdd"/><text style="dominant-baseline: middle; font-size: 10.2px;" transform="translate(120.2265625,35)" y="0" x="0" id="text-entity-projects-76f947d8-c3aa-4af7-8360-e56bd856d031-attr-1-key" class="er entityLabel">PK</text><rect height="22" width="36.5234375" y="46" x="0" class="er attributeBoxEven"/><text style="dominant-baseline: middle; font-size: 10.2px;" transform="translate(5,57)" y="0" x="0" id="text-entity-projects-76f947d8-c3aa-4af7-8360-e56bd856d031-attr-2-type" class="er entityLabel">String</text><rect height="22" width="78.703125" y="46" x="36.5234375" class="er attributeBoxEven"/><text style="dominant-baseline: middle; font-size: 10.2px;" transform="translate(41.5234375,57)" y="0" x="0" id="text-entity-projects-76f947d8-c3aa-4af7-8360-e56bd856d031-attr-2-name" class="er entityLabel">name</text><rect height="22" width="21.5625" y="46" x="115.2265625" class="er attributeBoxEven"/><text style="dominant-baseline: middle; font-size: 10.2px;" transform="translate(120.2265625,57)" y="0" x="0" id="text-entity-projects-76f947d8-c3aa-4af7-8360-e56bd856d031-attr-2-key" class="er entityLabel"/><rect height="22" width="36.5234375" y="68" x="0" class="er attributeBoxOdd"/><text style="dominant-baseline: middle; font-size: 10.2px;" transform="translate(5,79)" y="0" x="0" id="text-entity-projects-76f947d8-c3aa-4af7-8360-e56bd856d031-attr-3-type" class="er entityLabel">String</text><rect height="22" width="78.703125" y="68" x="36.5234375" class="er attributeBoxOdd"/><text style="dominant-baseline: middle; font-size: 10.2px;" transform="translate(41.5234375,79)" y="0" x="0" id="text-entity-projects-76f947d8-c3aa-4af7-8360-e56bd856d031-attr-3-name" class="er entityLabel">urlEnviorments</text><rect height="22" width="21.5625" y="68" x="115.2265625" class="er attributeBoxOdd"/><text style="dominant-baseline: middle; font-size: 10.2px;" transform="translate(120.2265625,79)" y="0" x="0" id="text-entity-projects-76f947d8-c3aa-4af7-8360-e56bd856d031-attr-3-key" class="er entityLabel"/></g><g transform="translate(153.431640625,20 )" id="entity-taskcomments-a7790cf3-bfdc-4479-9d9b-484979c207a9"><rect height="68" width="113.2890625" y="0" x="0" class="er entityBox"/><text style="dominant-baseline: middle; text-anchor: middle; font-size: 12px;" transform="translate(56.64453125,12)" y="0" x="0" id="text-entity-taskcomments-a7790cf3-bfdc-4479-9d9b-484979c207a9" class="er entityLabel">task_comments</text><rect height="22" width="37.377604166666664" y="24" x="0" class="er attributeBoxOdd"/><text style="dominant-baseline: middle; font-size: 10.2px;" transform="translate(5,35)" y="0" x="0" id="text-entity-taskcomments-a7790cf3-bfdc-4479-9d9b-484979c207a9-attr-1-type" class="er entityLabel">String</text><rect height="22" width="53.494791666666664" y="24" x="37.377604166666664" class="er attributeBoxOdd"/><text style="dominant-baseline: middle; font-size: 10.2px;" transform="translate(42.377604166666664,35)" y="0" x="0" id="text-entity-taskcomments-a7790cf3-bfdc-4479-9d9b-484979c207a9-attr-1-name" class="er entityLabel">id</text><rect height="22" width="22.416666666666668" y="24" x="90.87239583333333" class="er attributeBoxOdd"/><text style="dominant-baseline: middle; font-size: 10.2px;" transform="translate(95.87239583333333,35)" y="0" x="0" id="text-entity-taskcomments-a7790cf3-bfdc-4479-9d9b-484979c207a9-attr-1-key" class="er entityLabel">PK</text><rect height="22" width="37.377604166666664" y="46" x="0" class="er attributeBoxEven"/><text style="dominant-baseline: middle; font-size: 10.2px;" transform="translate(5,57)" y="0" x="0" id="text-entity-taskcomments-a7790cf3-bfdc-4479-9d9b-484979c207a9-attr-2-type" class="er entityLabel">String</text><rect height="22" width="53.494791666666664" y="46" x="37.377604166666664" class="er attributeBoxEven"/><text style="dominant-baseline: middle; font-size: 10.2px;" transform="translate(42.377604166666664,57)" y="0" x="0" id="text-entity-taskcomments-a7790cf3-bfdc-4479-9d9b-484979c207a9-attr-2-name" class="er entityLabel">comment</text><rect height="22" width="22.416666666666668" y="46" x="90.87239583333333" class="er attributeBoxEven"/><text style="dominant-baseline: middle; font-size: 10.2px;" transform="translate(95.87239583333333,57)" y="0" x="0" id="text-entity-taskcomments-a7790cf3-bfdc-4479-9d9b-484979c207a9-attr-2-key" class="er entityLabel"/></g><g transform="translate(118.580078125,188 )" id="entity-tasks-7cb06851-ced4-46c7-a2ac-d7e093728142"><rect height="200" width="182.9921875" y="0" x="0" class="er entityBox"/><text style="dominant-baseline: middle; text-anchor: middle; font-size: 12px;" transform="translate(91.49609375,12)" y="0" x="0" id="text-entity-tasks-7cb06851-ced4-46c7-a2ac-d7e093728142" class="er entityLabel">tasks</text><rect height="22" width="53.6640625" y="24" x="0" class="er attributeBoxOdd"/><text style="dominant-baseline: middle; font-size: 10.2px;" transform="translate(5,35)" y="0" x="0" id="text-entity-tasks-7cb06851-ced4-46c7-a2ac-d7e093728142-attr-1-type" class="er entityLabel">String</text><rect height="22" width="60.984375" y="24" x="53.6640625" class="er attributeBoxOdd"/><text style="dominant-baseline: middle; font-size: 10.2px;" transform="translate(58.6640625,35)" y="0" x="0" id="text-entity-tasks-7cb06851-ced4-46c7-a2ac-d7e093728142-attr-1-name" class="er entityLabel">id</text><rect height="22" width="21.5625" y="24" x="114.6484375" class="er attributeBoxOdd"/><text style="dominant-baseline: middle; font-size: 10.2px;" transform="translate(119.6484375,35)" y="0" x="0" id="text-entity-tasks-7cb06851-ced4-46c7-a2ac-d7e093728142-attr-1-key" class="er entityLabel">PK</text><rect height="22" width="46.78125" y="24" x="136.2109375" class="er attributeBoxOdd"/><text style="dominant-baseline: middle; font-size: 10.2px;" transform="translate(141.2109375,35)" y="0" x="0" id="text-entity-tasks-7cb06851-ced4-46c7-a2ac-d7e093728142-attr-1-comment" class="er entityLabel"/><rect height="22" width="53.6640625" y="46" x="0" class="er attributeBoxEven"/><text style="dominant-baseline: middle; font-size: 10.2px;" transform="translate(5,57)" y="0" x="0" id="text-entity-tasks-7cb06851-ced4-46c7-a2ac-d7e093728142-attr-2-type" class="er entityLabel">String</text><rect height="22" width="60.984375" y="46" x="53.6640625" class="er attributeBoxEven"/><text style="dominant-baseline: middle; font-size: 10.2px;" transform="translate(58.6640625,57)" y="0" x="0" id="text-entity-tasks-7cb06851-ced4-46c7-a2ac-d7e093728142-attr-2-name" class="er entityLabel">title</text><rect height="22" width="21.5625" y="46" x="114.6484375" class="er attributeBoxEven"/><text style="dominant-baseline: middle; font-size: 10.2px;" transform="translate(119.6484375,57)" y="0" x="0" id="text-entity-tasks-7cb06851-ced4-46c7-a2ac-d7e093728142-attr-2-key" class="er entityLabel"/><rect height="22" width="46.78125" y="46" x="136.2109375" class="er attributeBoxEven"/><text style="dominant-baseline: middle; font-size: 10.2px;" transform="translate(141.2109375,57)" y="0" x="0" id="text-entity-tasks-7cb06851-ced4-46c7-a2ac-d7e093728142-attr-2-comment" class="er entityLabel"/><rect height="22" width="53.6640625" y="68" x="0" class="er attributeBoxOdd"/><text style="dominant-baseline: middle; font-size: 10.2px;" transform="translate(5,79)" y="0" x="0" id="text-entity-tasks-7cb06851-ced4-46c7-a2ac-d7e093728142-attr-3-type" class="er entityLabel">String</text><rect height="22" width="60.984375" y="68" x="53.6640625" class="er attributeBoxOdd"/><text style="dominant-baseline: middle; font-size: 10.2px;" transform="translate(58.6640625,79)" y="0" x="0" id="text-entity-tasks-7cb06851-ced4-46c7-a2ac-d7e093728142-attr-3-name" class="er entityLabel">description</text><rect height="22" width="21.5625" y="68" x="114.6484375" class="er attributeBoxOdd"/><text style="dominant-baseline: middle; font-size: 10.2px;" transform="translate(119.6484375,79)" y="0" x="0" id="text-entity-tasks-7cb06851-ced4-46c7-a2ac-d7e093728142-attr-3-key" class="er entityLabel"/><rect height="22" width="46.78125" y="68" x="136.2109375" class="er attributeBoxOdd"/><text style="dominant-baseline: middle; font-size: 10.2px;" transform="translate(141.2109375,79)" y="0" x="0" id="text-entity-tasks-7cb06851-ced4-46c7-a2ac-d7e093728142-attr-3-comment" class="er entityLabel">nullable</text><rect height="22" width="53.6640625" y="90" x="0" class="er attributeBoxEven"/><text style="dominant-baseline: middle; font-size: 10.2px;" transform="translate(5,101)" y="0" x="0" id="text-entity-tasks-7cb06851-ced4-46c7-a2ac-d7e093728142-attr-4-type" class="er entityLabel">String</text><rect height="22" width="60.984375" y="90" x="53.6640625" class="er attributeBoxEven"/><text style="dominant-baseline: middle; font-size: 10.2px;" transform="translate(58.6640625,101)" y="0" x="0" id="text-entity-tasks-7cb06851-ced4-46c7-a2ac-d7e093728142-attr-4-name" class="er entityLabel">originSite</text><rect height="22" width="21.5625" y="90" x="114.6484375" class="er attributeBoxEven"/><text style="dominant-baseline: middle; font-size: 10.2px;" transform="translate(119.6484375,101)" y="0" x="0" id="text-entity-tasks-7cb06851-ced4-46c7-a2ac-d7e093728142-attr-4-key" class="er entityLabel"/><rect height="22" width="46.78125" y="90" x="136.2109375" class="er attributeBoxEven"/><text style="dominant-baseline: middle; font-size: 10.2px;" transform="translate(141.2109375,101)" y="0" x="0" id="text-entity-tasks-7cb06851-ced4-46c7-a2ac-d7e093728142-attr-4-comment" class="er entityLabel"/><rect height="22" width="53.6640625" y="112" x="0" class="er attributeBoxOdd"/><text style="dominant-baseline: middle; font-size: 10.2px;" transform="translate(5,123)" y="0" x="0" id="text-entity-tasks-7cb06851-ced4-46c7-a2ac-d7e093728142-attr-5-type" class="er entityLabel">Int</text><rect height="22" width="60.984375" y="112" x="53.6640625" class="er attributeBoxOdd"/><text style="dominant-baseline: middle; font-size: 10.2px;" transform="translate(58.6640625,123)" y="0" x="0" id="text-entity-tasks-7cb06851-ced4-46c7-a2ac-d7e093728142-attr-5-name" class="er entityLabel">xyPosition</text><rect height="22" width="21.5625" y="112" x="114.6484375" class="er attributeBoxOdd"/><text style="dominant-baseline: middle; font-size: 10.2px;" transform="translate(119.6484375,123)" y="0" x="0" id="text-entity-tasks-7cb06851-ced4-46c7-a2ac-d7e093728142-attr-5-key" class="er entityLabel"/><rect height="22" width="46.78125" y="112" x="136.2109375" class="er attributeBoxOdd"/><text style="dominant-baseline: middle; font-size: 10.2px;" transform="translate(141.2109375,123)" y="0" x="0" id="text-entity-tasks-7cb06851-ced4-46c7-a2ac-d7e093728142-attr-5-comment" class="er entityLabel"/><rect height="22" width="53.6640625" y="134" x="0" class="er attributeBoxEven"/><text style="dominant-baseline: middle; font-size: 10.2px;" transform="translate(5,145)" y="0" x="0" id="text-entity-tasks-7cb06851-ced4-46c7-a2ac-d7e093728142-attr-6-type" class="er entityLabel">Priority</text><rect height="22" width="60.984375" y="134" x="53.6640625" class="er attributeBoxEven"/><text style="dominant-baseline: middle; font-size: 10.2px;" transform="translate(58.6640625,145)" y="0" x="0" id="text-entity-tasks-7cb06851-ced4-46c7-a2ac-d7e093728142-attr-6-name" class="er entityLabel">priority</text><rect height="22" width="21.5625" y="134" x="114.6484375" class="er attributeBoxEven"/><text style="dominant-baseline: middle; font-size: 10.2px;" transform="translate(119.6484375,145)" y="0" x="0" id="text-entity-tasks-7cb06851-ced4-46c7-a2ac-d7e093728142-attr-6-key" class="er entityLabel"/><rect height="22" width="46.78125" y="134" x="136.2109375" class="er attributeBoxEven"/><text style="dominant-baseline: middle; font-size: 10.2px;" transform="translate(141.2109375,145)" y="0" x="0" id="text-entity-tasks-7cb06851-ced4-46c7-a2ac-d7e093728142-attr-6-comment" class="er entityLabel"/><rect height="22" width="53.6640625" y="156" x="0" class="er attributeBoxOdd"/><text style="dominant-baseline: middle; font-size: 10.2px;" transform="translate(5,167)" y="0" x="0" id="text-entity-tasks-7cb06851-ced4-46c7-a2ac-d7e093728142-attr-7-type" class="er entityLabel">DateTime</text><rect height="22" width="60.984375" y="156" x="53.6640625" class="er attributeBoxOdd"/><text style="dominant-baseline: middle; font-size: 10.2px;" transform="translate(58.6640625,167)" y="0" x="0" id="text-entity-tasks-7cb06851-ced4-46c7-a2ac-d7e093728142-attr-7-name" class="er entityLabel">createdAt</text><rect height="22" width="21.5625" y="156" x="114.6484375" class="er attributeBoxOdd"/><text style="dominant-baseline: middle; font-size: 10.2px;" transform="translate(119.6484375,167)" y="0" x="0" id="text-entity-tasks-7cb06851-ced4-46c7-a2ac-d7e093728142-attr-7-key" class="er entityLabel"/><rect height="22" width="46.78125" y="156" x="136.2109375" class="er attributeBoxOdd"/><text style="dominant-baseline: middle; font-size: 10.2px;" transform="translate(141.2109375,167)" y="0" x="0" id="text-entity-tasks-7cb06851-ced4-46c7-a2ac-d7e093728142-attr-7-comment" class="er entityLabel"/><rect height="22" width="53.6640625" y="178" x="0" class="er attributeBoxEven"/><text style="dominant-baseline: middle; font-size: 10.2px;" transform="translate(5,189)" y="0" x="0" id="text-entity-tasks-7cb06851-ced4-46c7-a2ac-d7e093728142-attr-8-type" class="er entityLabel">DateTime</text><rect height="22" width="60.984375" y="178" x="53.6640625" class="er attributeBoxEven"/><text style="dominant-baseline: middle; font-size: 10.2px;" transform="translate(58.6640625,189)" y="0" x="0" id="text-entity-tasks-7cb06851-ced4-46c7-a2ac-d7e093728142-attr-8-name" class="er entityLabel">updatedAt</text><rect height="22" width="21.5625" y="178" x="114.6484375" class="er attributeBoxEven"/><text style="dominant-baseline: middle; font-size: 10.2px;" transform="translate(119.6484375,189)" y="0" x="0" id="text-entity-tasks-7cb06851-ced4-46c7-a2ac-d7e093728142-attr-8-key" class="er entityLabel"/><rect height="22" width="46.78125" y="178" x="136.2109375" class="er attributeBoxEven"/><text style="dominant-baseline: middle; font-size: 10.2px;" transform="translate(141.2109375,189)" y="0" x="0" id="text-entity-tasks-7cb06851-ced4-46c7-a2ac-d7e093728142-attr-8-comment" class="er entityLabel"/></g><g transform="translate(279.56640625,722 )" id="entity-teams-c8005494-aad0-4378-8059-073e09b637c1"><rect height="68" width="100" y="0" x="0" class="er entityBox"/><text style="dominant-baseline: middle; text-anchor: middle; font-size: 12px;" transform="translate(50,12)" y="0" x="0" id="text-entity-teams-c8005494-aad0-4378-8059-073e09b637c1" class="er entityLabel">teams</text><rect height="22" width="38.838541666666664" y="24" x="0" class="er attributeBoxOdd"/><text style="dominant-baseline: middle; font-size: 10.2px;" transform="translate(5,35)" y="0" x="0" id="text-entity-teams-c8005494-aad0-4378-8059-073e09b637c1-attr-1-type" class="er entityLabel">String</text><rect height="22" width="37.283854166666664" y="24" x="38.838541666666664" class="er attributeBoxOdd"/><text style="dominant-baseline: middle; font-size: 10.2px;" transform="translate(43.838541666666664,35)" y="0" x="0" id="text-entity-teams-c8005494-aad0-4378-8059-073e09b637c1-attr-1-name" class="er entityLabel">id</text><rect height="22" width="23.877604166666668" y="24" x="76.12239583333333" class="er attributeBoxOdd"/><text style="dominant-baseline: middle; font-size: 10.2px;" transform="translate(81.12239583333333,35)" y="0" x="0" id="text-entity-teams-c8005494-aad0-4378-8059-073e09b637c1-attr-1-key" class="er entityLabel">PK</text><rect height="22" width="38.838541666666664" y="46" x="0" class="er attributeBoxEven"/><text style="dominant-baseline: middle; font-size: 10.2px;" transform="translate(5,57)" y="0" x="0" id="text-entity-teams-c8005494-aad0-4378-8059-073e09b637c1-attr-2-type" class="er entityLabel">String</text><rect height="22" width="37.283854166666664" y="46" x="38.838541666666664" class="er attributeBoxEven"/><text style="dominant-baseline: middle; font-size: 10.2px;" transform="translate(43.838541666666664,57)" y="0" x="0" id="text-entity-teams-c8005494-aad0-4378-8059-073e09b637c1-attr-2-name" class="er entityLabel">name</text><rect height="22" width="23.877604166666668" y="46" x="76.12239583333333" class="er attributeBoxEven"/><text style="dominant-baseline: middle; font-size: 10.2px;" transform="translate(81.12239583333333,57)" y="0" x="0" id="text-entity-teams-c8005494-aad0-4378-8059-073e09b637c1-attr-2-key" class="er entityLabel"/></g><g transform="translate(251.125,890 )" id="entity-users-909ee5f1-e289-403f-94b7-b6d7a617f3d6"><rect height="112" width="156.8828125" y="0" x="0" class="er entityBox"/><text style="dominant-baseline: middle; text-anchor: middle; font-size: 12px;" transform="translate(78.44140625,12)" y="0" x="0" id="text-entity-users-909ee5f1-e289-403f-94b7-b6d7a617f3d6" class="er entityLabel">users</text><rect height="22" width="36.5234375" y="24" x="0" class="er attributeBoxOdd"/><text style="dominant-baseline: middle; font-size: 10.2px;" transform="translate(5,35)" y="0" x="0" id="text-entity-users-909ee5f1-e289-403f-94b7-b6d7a617f3d6-attr-1-type" class="er entityLabel">String</text><rect height="22" width="52.015625" y="24" x="36.5234375" class="er attributeBoxOdd"/><text style="dominant-baseline: middle; font-size: 10.2px;" transform="translate(41.5234375,35)" y="0" x="0" id="text-entity-users-909ee5f1-e289-403f-94b7-b6d7a617f3d6-attr-1-name" class="er entityLabel">id</text><rect height="22" width="21.5625" y="24" x="88.5390625" class="er attributeBoxOdd"/><text style="dominant-baseline: middle; font-size: 10.2px;" transform="translate(93.5390625,35)" y="0" x="0" id="text-entity-users-909ee5f1-e289-403f-94b7-b6d7a617f3d6-attr-1-key" class="er entityLabel">PK</text><rect height="22" width="46.78125" y="24" x="110.1015625" class="er attributeBoxOdd"/><text style="dominant-baseline: middle; font-size: 10.2px;" transform="translate(115.1015625,35)" y="0" x="0" id="text-entity-users-909ee5f1-e289-403f-94b7-b6d7a617f3d6-attr-1-comment" class="er entityLabel"/><rect height="22" width="36.5234375" y="46" x="0" class="er attributeBoxEven"/><text style="dominant-baseline: middle; font-size: 10.2px;" transform="translate(5,57)" y="0" x="0" id="text-entity-users-909ee5f1-e289-403f-94b7-b6d7a617f3d6-attr-2-type" class="er entityLabel">String</text><rect height="22" width="52.015625" y="46" x="36.5234375" class="er attributeBoxEven"/><text style="dominant-baseline: middle; font-size: 10.2px;" transform="translate(41.5234375,57)" y="0" x="0" id="text-entity-users-909ee5f1-e289-403f-94b7-b6d7a617f3d6-attr-2-name" class="er entityLabel">email</text><rect height="22" width="21.5625" y="46" x="88.5390625" class="er attributeBoxEven"/><text style="dominant-baseline: middle; font-size: 10.2px;" transform="translate(93.5390625,57)" y="0" x="0" id="text-entity-users-909ee5f1-e289-403f-94b7-b6d7a617f3d6-attr-2-key" class="er entityLabel"/><rect height="22" width="46.78125" y="46" x="110.1015625" class="er attributeBoxEven"/><text style="dominant-baseline: middle; font-size: 10.2px;" transform="translate(115.1015625,57)" y="0" x="0" id="text-entity-users-909ee5f1-e289-403f-94b7-b6d7a617f3d6-attr-2-comment" class="er entityLabel"/><rect height="22" width="36.5234375" y="68" x="0" class="er attributeBoxOdd"/><text style="dominant-baseline: middle; font-size: 10.2px;" transform="translate(5,79)" y="0" x="0" id="text-entity-users-909ee5f1-e289-403f-94b7-b6d7a617f3d6-attr-3-type" class="er entityLabel">String</text><rect height="22" width="52.015625" y="68" x="36.5234375" class="er attributeBoxOdd"/><text style="dominant-baseline: middle; font-size: 10.2px;" transform="translate(41.5234375,79)" y="0" x="0" id="text-entity-users-909ee5f1-e289-403f-94b7-b6d7a617f3d6-attr-3-name" class="er entityLabel">password</text><rect height="22" width="21.5625" y="68" x="88.5390625" class="er attributeBoxOdd"/><text style="dominant-baseline: middle; font-size: 10.2px;" transform="translate(93.5390625,79)" y="0" x="0" id="text-entity-users-909ee5f1-e289-403f-94b7-b6d7a617f3d6-attr-3-key" class="er entityLabel"/><rect height="22" width="46.78125" y="68" x="110.1015625" class="er attributeBoxOdd"/><text style="dominant-baseline: middle; font-size: 10.2px;" transform="translate(115.1015625,79)" y="0" x="0" id="text-entity-users-909ee5f1-e289-403f-94b7-b6d7a617f3d6-attr-3-comment" class="er entityLabel">nullable</text><rect height="22" width="36.5234375" y="90" x="0" class="er attributeBoxEven"/><text style="dominant-baseline: middle; font-size: 10.2px;" transform="translate(5,101)" y="0" x="0" id="text-entity-users-909ee5f1-e289-403f-94b7-b6d7a617f3d6-attr-4-type" class="er entityLabel">Json</text><rect height="22" width="52.015625" y="90" x="36.5234375" class="er attributeBoxEven"/><text style="dominant-baseline: middle; font-size: 10.2px;" transform="translate(41.5234375,101)" y="0" x="0" id="text-entity-users-909ee5f1-e289-403f-94b7-b6d7a617f3d6-attr-4-name" class="er entityLabel">settings</text><rect height="22" width="21.5625" y="90" x="88.5390625" class="er attributeBoxEven"/><text style="dominant-baseline: middle; font-size: 10.2px;" transform="translate(93.5390625,101)" y="0" x="0" id="text-entity-users-909ee5f1-e289-403f-94b7-b6d7a617f3d6-attr-4-key" class="er entityLabel"/><rect height="22" width="46.78125" y="90" x="110.1015625" class="er attributeBoxEven"/><text style="dominant-baseline: middle; font-size: 10.2px;" transform="translate(115.1015625,101)" y="0" x="0" id="text-entity-users-909ee5f1-e289-403f-94b7-b6d7a617f3d6-attr-4-comment" class="er entityLabel">nullable</text></g><rect height="14" width="32.4296875" y="654" x="313.3515625" class="er relationshipLabelBox"/><text style="text-anchor: middle; dominant-baseline: middle; font-size: 12px;" y="661" x="329.56640625" id="rel1" class="er relationshipLabel">teams</text><rect height="14" width="26.8359375" y="131" x="196.658203125" class="er relationshipLabelBox"/><text style="text-anchor: middle; dominant-baseline: middle; font-size: 12px;" y="138" x="210.076171875" id="rel2" class="er relationshipLabel">tasks</text><rect height="14" width="74" y="426.6665344238281" x="62.093894958496094" class="er relationshipLabelBox"/><text style="text-anchor: middle; dominant-baseline: middle; font-size: 12px;" y="433.6665344238281" x="99.0938949584961" id="rel3" class="er relationshipLabel">enum:priority</text><rect height="14" width="44.296875" y="437.2809143066406" x="301.59112548828125" class="er relationshipLabelBox"/><text style="text-anchor: middle; dominant-baseline: middle; font-size: 12px;" y="444.2809143066406" x="323.73956298828125" id="rel4" class="er relationshipLabel">projects</text><rect height="0" width="0" y="838.9992065429688" x="288.53033447265625" class="er relationshipLabelBox"/><text style="text-anchor: middle; dominant-baseline: middle; font-size: 12px;" y="838.9992065429688" x="288.53033447265625" id="rel5" class="er relationshipLabel"/><rect height="0" width="0" y="838.9992065429688" x="370.60247802734375" class="er relationshipLabelBox"/><text style="text-anchor: middle; dominant-baseline: middle; font-size: 12px;" y="838.9992065429688" x="370.60247802734375" id="rel6" class="er relationshipLabel"/></svg>